# xmcd
#
# Track frame offsets: 
#        150
#        10845
#        30693
#        40518
#        56793
#        70728
#        83039
#        95020
#        105041
#        112790
#        126707
#        138735
#        154311
#        171535
#        186235
#        204121
#
# Disc length: 3063 seconds
#
# Revision: 0
# Processed by: cddbd v1.5.2PL0 Copyright (c) Steve Scherf et al.
# Submitted via: ExactAudioCopy v0.95b3
#
DISCID=d60bf510
DTITLE=Various Artist - Country No.1 [CD6-Vuz do Tennessee)
DYEAR=2007
DGENRE=Country
TTITLE0=vuz do Tennessee
TTITLE1=Soudce Lynch
TTITLE2=Hvezdy
TTITLE3=Doney Gal
TTITLE4=Zlate strevicky
TTITLE5=Michaluv song
TTITLE6=Chrapani (Speak To The Sky)
TTITLE7=Trampske perly
TTITLE8=ja tajne cvicim
TTITLE9=Vecna zizen
TTITLE10=Rad se brouzdam rosou
TTITLE11=Tata
TTITLE12=Sefe
TTITLE13=Zustan lasko (Sixteen Candels
TTITLE14=Laska tva
TTITLE15=Kosmickej vandr
EXTD=
EXTT0=
EXTT1=
EXTT2=
EXTT3=
EXTT4=
EXTT5=
EXTT6=
EXTT7=
EXTT8=
EXTT9=
EXTT10=
EXTT11=
EXTT12=
EXTT13=
EXTT14=
EXTT15=
PLAYORDER=
